{
  "accessors": [
    {
      "bufferView": 1,
      "componentType": 5126,
      "count": 3958,
      "max": [
        0.96175998449325562,
        1.0112500190734863,
        1.0112500190734863
      ],
      "min": [
        -1.0396900177001953,
        -1.068310022354126,
        -1.0112500190734863
      ],
      "type": "VEC3"
    },
    {
      "bufferView": 1,
      "byteOffset": 47496,
      "componentType": 5126,
      "count": 3958,
      "max": [
        0.99042081832885742,
        1,
        0.99875247478485107
      ],
      "min": [
        -0.98224562406539917,
        -1,
        -0.99735534191131592
      ],
      "type": "VEC3"
    },
    {
      "bufferView": 0,
      "componentType": 5125,
      "count": 5940,
      "max": [
        3957
      ],
      "min": [
        0
      ],
      "type": "SCALAR"
    },
    {
      "bufferView": 1,
      "byteOffset": 94992,
      "componentType": 5126,
      "count": 525,
      "max": [
        0.99773001670837402,
        1.0467400550842285,
        1
      ],
      "min": [
        -1.031000018119812,
        -1.0593600273132324,
        -1.030210018157959
      ],
      "type": "VEC3"
    },
    {
      "bufferView": 1,
      "byteOffset": 101292,
      "componentType": 5126,
      "count": 525,
      "max": [
        0.96773833036422729,
        0.9435235857963562,
        1
      ],
      "min": [
        -0.99207806587219238,
        -0.9808313250541687,
        -0.99989187717437744
      ],
      "type": "VEC3"
    },
    {
      "bufferView": 0,
      "byteOffset": 23760,
      "componentType": 5125,
      "count": 852,
      "max": [
        524
      ],
      "min": [
        0
      ],
      "type": "SCALAR"
    },
    {
      "bufferView": 1,
      "byteOffset": 107592,
      "componentType": 5126,
      "count": 18416,
      "max": [
        1.0868500471115112,
        1.0868500471115112,
        1.0868500471115112
      ],
      "min": [
        -1.0868500471115112,
        -1.0868500471115112,
        -1.0868500471115112
      ],
      "type": "VEC3"
    },
    {
      "bufferView": 1,
      "byteOffset": 328584,
      "componentType": 5126,
      "count": 18416,
      "max": [
        0.99997788667678833,
        0.99997788667678833,
        0.99997800588607788
      ],
      "min": [
        -0.99997788667678833,
        -0.99997788667678833,
        -0.99997800588607788
      ],
      "type": "VEC3"
    },
    {
      "bufferView": 0,
      "byteOffset": 27168,
      "componentType": 5125,
      "count": 147456,
      "max": [
        18415
      ],
      "min": [
        0
      ],
      "type": "SCALAR"
    },
    {
      "bufferView": 1,
      "byteOffset": 549576,
      "componentType": 5126,
      "count": 3064,
      "max": [
        1.0768599510192871,
        1.0768599510192871,
        1.0768599510192871
      ],
      "min": [
        -1.0768599510192871,
        -1.0768599510192871,
        -1.0768599510192871
      ],
      "type": "VEC3"
    },
    {
      "bufferView": 1,
      "byteOffset": 586344,
      "componentType": 5126,
      "count": 3064,
      "max": [
        0.999916672706604,
        0.999916672706604,
        0.999916672706604
      ],
      "min": [
        -0.999916672706604,
        -0.999916672706604,
        -0.999916672706604
      ],
      "type": "VEC3"
    },
    {
      "bufferView": 0,
      "byteOffset": 616992,
      "componentType": 5125,
      "count": 18432,
      "max": [
        3063
      ],
      "min": [
        0
      ],
      "type": "SCALAR"
    }
  ],
  "asset": {
    "extras": {
      "author": "Arigaia Sekuin (https://sketchfab.com/arigaia.sekuin)",
      "license": "CC-BY-4.0 (http://creativecommons.org/licenses/by/4.0/)",
      "source": "https://sketchfab.com/models/ffafe62053a745b8b2c8182e59239e79",
      "title": "Abstract Ball"
    },
    "generator": "Sketchfab-3.33.1",
    "version": "2.0"
  },
  "bufferViews": [
    {
      "buffer": 0,
      "byteLength": 690720,
      "byteOffset": 0,
      "name": "floatBufferViews",
      "target": 34963
    },
    {
      "buffer": 0,
      "byteLength": 623112,
      "byteOffset": 690720,
      "byteStride": 12,
      "name": "floatBufferViews",
      "target": 34962
    }
  ],
  "buffers": [
    {
      "byteLength": 1313832,
      "uri": "scene.bin"
    }
  ],
  "materials": [
    {
      "doubleSided": true,
      "name": "Ballz.002",
      "pbrMetallicRoughness": {
        "baseColorFactor": [
          1,
          1,
          1,
          1
        ],
        "metallicFactor": 1,
        "roughnessFactor": 0.024719990800000001
      }
    },
    {
      "doubleSided": true,
      "name": "Wireframy.002",
      "pbrMetallicRoughness": {
        "baseColorFactor": [
          1,
          1,
          1,
          1
        ],
        "metallicFactor": 1,
        "roughnessFactor": 0.59999999999999998
      }
    },
    {
      "doubleSided": true,
      "name": "Lightballz.002",
      "pbrMetallicRoughness": {
        "baseColorFactor": [
          0.099275914600000001,
          0.099275914600000001,
          0.099275914600000001,
          1
        ],
        "metallicFactor": 0.2943978659,
        "roughnessFactor": 0.020201936399999999
      }
    },
    {
      "doubleSided": true,
      "emissiveFactor": [
        0.30222009082027318,
        0.96106134851186431,
        0.9893293567413034
      ],
      "name": "ballz2.002",
      "pbrMetallicRoughness": {
        "baseColorFactor": [
          1,
          1,
          1,
          1
        ],
        "metallicFactor": 1,
        "roughnessFactor": 0.59999999999999998
      }
    }
  ],
  "meshes": [
    {
      "name": "Icosphere.002_0",
      "primitives": [
        {
          "attributes": {
            "NORMAL": 1,
            "POSITION": 0
          },
          "indices": 2,
          "material": 3,
          "mode": 4
        }
      ]
    },
    {
      "name": "Icosphere.003_0",
      "primitives": [
        {
          "attributes": {
            "NORMAL": 4,
            "POSITION": 3
          },
          "indices": 5,
          "material": 2,
          "mode": 4
        }
      ]
    },
    {
      "name": "Cube.002_0",
      "primitives": [
        {
          "attributes": {
            "NORMAL": 7,
            "POSITION": 6
          },
          "indices": 8,
          "material": 1,
          "mode": 4
        }
      ]
    },
    {
      "name": "Cube.003_0",
      "primitives": [
        {
          "attributes": {
            "NORMAL": 10,
            "POSITION": 9
          },
          "indices": 11,
          "material": 0,
          "mode": 4
        }
      ]
    }
  ],
  "nodes": [
    {
      "children": [
        1
      ],
      "name": "RootNode (gltf orientation matrix)",
      "rotation": [
        -0.70710678118654746,
        -0,
        -0,
        0.70710678118654757
      ]
    },
    {
      "children": [
        2
      ],
      "matrix": [
        1,
        0,
        0,
        0,
        0,
        1,
        0,
        0,
        0,
        0,
        1,
        0,
        9.459999716909806e-08,
        2.9400000656210068e-08,
        0,
        1
      ],
      "name": "RootNode (model correction matrix)"
    },
    {
      "children": [
        3,
        5,
        7,
        9,
        11,
        13,
        15
      ],
      "name": "Root"
    },
    {
      "children": [
        4
      ],
      "matrix": [
        0.19601000000000005,
        1.04084,
        -0.66647000000000012,
        0,
        -0.24925000000000003,
        0.69422000000000017,
        1.01088,
        0,
        1.2105399999999999,
        -0.025590000000000005,
        0.31605000000000005,
        0,
        0,
        0,
        0,
        1
      ],
      "name": "Icosphere.002"
    },
    {
      "mesh": 0,
      "name": "Icosphere.002_0"
    },
    {
      "children": [
        6
      ],
      "matrix": [
        0.19601000000000005,
        1.04084,
        -0.66647000000000012,
        0,
        -0.24925000000000003,
        0.69422000000000017,
        1.01088,
        0,
        1.2105399999999999,
        -0.025590000000000005,
        0.31605000000000005,
        0,
        0,
        0,
        0,
        1
      ],
      "name": "Icosphere.003"
    },
    {
      "mesh": 1,
      "name": "Icosphere.003_0"
    },
    {
      "children": [
        8
      ],
      "matrix": [
        -0.80930000000000002,
        0.53522999999999998,
        -0.79025999999999996,
        0,
        0.002850000000000001,
        1.0374599999999998,
        0.69973000000000019,
        0,
        0.95445000000000002,
        0.45072999999999996,
        -0.67217000000000016,
        0,
        0,
        0,
        0,
        1
      ],
      "name": "Cube.002"
    },
    {
      "mesh": 2,
      "name": "Cube.002_0"
    },
    {
      "children": [
        10
      ],
      "matrix": [
        -0.093610000000000027,
        1.12256,
        -0.54502000000000006,
        0,
        -0.67289000000000021,
        0.41487000000000007,
        0.97007999999999994,
        0,
        1.05091,
        0.36563000000000001,
        0.57257999999999998,
        0,
        0,
        0,
        0,
        1
      ],
      "name": "Cube.003"
    },
    {
      "mesh": 3,
      "name": "Cube.003_0"
    },
    {
      "children": [
        12
      ],
      "matrix": [
        0.66330000000000011,
        0,
        -0.74835000000000007,
        0,
        0,
        1,
        0,
        0,
        0.74835000000000007,
        0,
        0.66330000000000011,
        0,
        5.1662400000000002,
        0.038840000000000006,
        3.2111499999999999,
        1
      ],
      "name": "Sun"
    },
    {
      "name": "Sun"
    },
    {
      "children": [
        14
      ],
      "matrix": [
        -0.41087000000000007,
        0.89919000000000016,
        0.15044000000000005,
        0,
        -0.65389000000000019,
        -0.17566000000000001,
        -0.73592000000000013,
        0,
        -0.63530000000000009,
        -0.40073999999999999,
        0.66015000000000013,
        0,
        -4.8888299999999996,
        -2.5996099999999998,
        4.8055199999999996,
        1
      ],
      "name": "Sun.001"
    },
    {
      "name": "Sun.001"
    },
    {
      "children": [
        16
      ],
      "matrix": [
        0.055880000000000006,
        0.085170000000000023,
        -0.99480000000000002,
        0,
        -0.99807999999999997,
        0.031580000000000004,
        -0.053360000000000012,
        0,
        0.026870000000000005,
        0.99587000000000003,
        0.086770000000000028,
        0,
        0.31419000000000002,
        11.021009999999999,
        0.97910999999999992,
        1
      ],
      "name": "Sun.002"
    },
    {
      "name": "Sun.002"
    }
  ],
  "scene": 0,
  "scenes": [
    {
      "name": "OSG_Scene",
      "nodes": [
        0
      ]
    }
  ]
}

